<svg width="256" height="256" viewBox="0 0 100 100" fill="none" xmlns="http://www.w3.org/2000/svg" class="shrink-0"><circle cx="50" cy="50" r="48" fill="url(#bgGradient)" opacity="0.1"></circle><path d="M50 15 L75 45 L50 55 L25 45 Z" fill="url(#prismGradient1)" opacity="0.9"></path><path d="M50 55 L58 75 L62 73 L54 53 Z" fill="url(#ray1)" opacity="0.85"></path><path d="M50 55 L50 78 L54 78 L54 55 Z" fill="url(#ray2)" opacity="0.85"></path><path d="M50 55 L42 75 L38 73 L46 53 Z" fill="url(#ray3)" opacity="0.85"></path><path d="M44 42 L48 47 L58 35" stroke="url(#checkGradient)" stroke-width="3.5" stroke-linecap="round" stroke-linejoin="round" fill="none" opacity="0.95"></path><circle cx="30" cy="50" r="2.5" fill="#3b82f6" opacity="0.6"></circle><circle cx="70" cy="50" r="2.5" fill="#8b5cf6" opacity="0.6"></circle><circle cx="50" cy="82" r="2.5" fill="#14b8a6" opacity="0.6"></circle><circle cx="50" cy="50" r="35" stroke="url(#ringGradient)" stroke-width="1.5" fill="none" opacity="0.3" stroke-dasharray="4 8"></circle><defs><linearGradient id="bgGradient" x1="0%" y1="0%" x2="100%" y2="100%"><stop offset="0%" stop-color="#3b82f6"></stop><stop offset="100%" stop-color="#8b5cf6"></stop></linearGradient><linearGradient id="prismGradient1" x1="25" y1="15" x2="75" y2="55"><stop offset="0%" stop-color="#3b82f6"></stop><stop offset="50%" stop-color="#8b5cf6"></stop><stop offset="100%" stop-color="#06b6d4"></stop></linearGradient><linearGradient id="ray1" x1="50" y1="55" x2="62" y2="73"><stop offset="0%" stop-color="#06b6d4" stop-opacity="0.8"></stop><stop offset="100%" stop-color="#14b8a6" stop-opacity="0.9"></stop></linearGradient><linearGradient id="ray2" x1="50" y1="55" x2="54" y2="78"><stop offset="0%" stop-color="#8b5cf6" stop-opacity="0.8"></stop><stop offset="100%" stop-color="#a78bfa" stop-opacity="0.9"></stop></linearGradient><linearGradient id="ray3" x1="50" y1="55" x2="38" y2="73"><stop offset="0%" stop-color="#3b82f6" stop-opacity="0.8"></stop><stop offset="100%" stop-color="#60a5fa" stop-opacity="0.9"></stop></linearGradient><linearGradient id="checkGradient" x1="44" y1="35" x2="58" y2="47"><stop offset="0%" stop-color="#ffffff"></stop><stop offset="100%" stop-color="#e0e7ff"></stop></linearGradient><linearGradient id="ringGradient" x1="0%" y1="0%" x2="100%" y2="100%"><stop offset="0%" stop-color="#3b82f6"></stop><stop offset="50%" stop-color="#8b5cf6"></stop><stop offset="100%" stop-color="#14b8a6"></stop></linearGradient></defs></svg>